<svg xmlns="http://www.w3.org/2000/svg" xmlns:xlink="http://www.w3.org/1999/xlink" width="500" zoomAndPan="magnify" viewBox="0 0 375 374.999991" height="500" preserveAspectRatio="xMidYMid meet" version="1.0"><defs><g/><clipPath id="a4d2664bba"><path d="M 7.296875 36.582031 L 367.824219 36.582031 L 367.824219 159 L 7.296875 159 Z M 7.296875 36.582031 " clip-rule="nonzero"/></clipPath><clipPath id="1818b8757c"><path d="M 25 219 L 350 219 L 350 338.550781 L 25 338.550781 Z M 25 219 " clip-rule="nonzero"/></clipPath><clipPath id="4a6ff02d84"><path d="M 158.375 89.457031 L 216.929688 89.457031 L 216.929688 145.714844 L 158.375 145.714844 Z M 158.375 89.457031 " clip-rule="nonzero"/></clipPath></defs><g clip-path="url(#a4d2664bba)"><path fill="#1a63c4" d="M 76.039062 158.390625 L 98.988281 158.390625 L 98.988281 114.546875 L 187.496094 71.855469 L 276.308594 114.546875 L 276.308594 158.390625 L 367.699219 158.390625 L 308.113281 152.660156 L 308.113281 94.503906 L 305.539062 93.351562 L 189.5 37.496094 L 187.496094 36.648438 L 185.496094 37.496094 L 69.757812 93.351562 L 67.179688 94.503906 L 67.179688 152.660156 L 7.296875 158.390625 Z M 76.039062 100.234375 L 187.496094 46.65625 L 298.957031 100.234375 L 298.957031 151.808594 L 285.191406 150.382812 L 285.191406 108.84375 L 282.613281 107.691406 L 189.5 62.695312 L 187.496094 61.847656 L 185.496094 62.695312 L 92.378906 107.664062 L 89.804688 108.816406 L 89.804688 150.355469 L 76.039062 151.785156 Z M 76.039062 100.234375 " fill-opacity="1" fill-rule="nonzero"/></g><g clip-path="url(#1818b8757c)"><path fill="#1a63c4" d="M 288.621094 219.425781 L 264.273438 219.425781 C 260.84375 228.007812 256.539062 236.316406 251.660156 244.074219 C 236.46875 268.996094 214.425781 289.617188 187.472656 303.382812 C 160.546875 289.617188 138.777344 268.996094 123.285156 244.074219 C 118.40625 236.339844 114.402344 228.03125 110.671875 219.425781 L 25.914062 219.425781 L 78.640625 224.878906 C 84.097656 239.492188 90.953125 252.683594 98.988281 264.992188 C 121.058594 298.226562 152.261719 323.449219 185.796875 337.765625 L 187.523438 338.339844 L 189.25 337.765625 C 222.78125 323.449219 254.289062 298.226562 276.058594 264.992188 C 284.367188 252.683594 291.25 239.492188 296.402344 224.878906 L 349.128906 219.425781 Z M 268.578125 260.089844 C 247.957031 291.320312 218.726562 314.816406 187.496094 328.554688 C 156.265625 314.792969 127.039062 291.320312 106.417969 260.089844 C 99.539062 249.480469 93.53125 238.015625 88.953125 226.003906 L 104.417969 227.433594 C 107.570312 234.890625 111.300781 242.046875 115.601562 248.929688 C 132.21875 275.855469 156.292969 297.925781 185.519531 312.539062 L 187.523438 313.691406 L 189.523438 312.539062 C 218.753906 297.925781 242.800781 275.878906 259.441406 248.929688 C 263.746094 242.046875 267.476562 234.890625 270.628906 227.433594 L 286.394531 226.003906 C 281.464844 238.042969 275.457031 249.503906 268.578125 260.089844 Z M 268.578125 260.089844 " fill-opacity="1" fill-rule="nonzero"/></g><g clip-path="url(#4a6ff02d84)"><path fill="#1a63c4" d="M 187.492188 132.179688 L 205.496094 145.28125 L 198.605469 124.125 L 216.609375 111.3125 L 194.527344 111.3125 L 187.492188 89.476562 L 180.453125 111.3125 L 158.375 111.3125 L 176.378906 124.125 L 169.511719 145.28125 Z M 187.492188 132.179688 " fill-opacity="1" fill-rule="nonzero"/></g><g fill="#1a63c4" fill-opacity="1"><g transform="translate(48.301855, 209.315235)"><g><path d="M 28.109375 -38.03125 L 28.109375 -30.609375 L 12.625 -30.609375 L 12.625 -22.59375 L 24.21875 -22.59375 L 24.21875 -15.390625 L 12.625 -15.390625 L 12.625 0 L 3.359375 0 L 3.359375 -38.03125 Z M 28.109375 -38.03125 "/></g></g></g><g fill="#1a63c4" fill-opacity="1"><g transform="translate(83.345207, 209.315235)"><g><path d="M 12.453125 -38.03125 L 12.453125 -15.28125 C 12.453125 -13 13.007812 -11.242188 14.125 -10.015625 C 15.25 -8.796875 16.894531 -8.1875 19.0625 -8.1875 C 21.226562 -8.1875 22.890625 -8.796875 24.046875 -10.015625 C 25.203125 -11.242188 25.78125 -13 25.78125 -15.28125 L 25.78125 -38.03125 L 35.046875 -38.03125 L 35.046875 -15.328125 C 35.046875 -11.929688 34.320312 -9.0625 32.875 -6.71875 C 31.4375 -4.375 29.5 -2.601562 27.0625 -1.40625 C 24.625 -0.21875 21.90625 0.375 18.90625 0.375 C 15.90625 0.375 13.222656 -0.207031 10.859375 -1.375 C 8.492188 -2.550781 6.625 -4.320312 5.25 -6.6875 C 3.882812 -9.050781 3.203125 -11.929688 3.203125 -15.328125 L 3.203125 -38.03125 Z M 12.453125 -38.03125 "/></g></g></g><g fill="#1a63c4" fill-opacity="1"><g transform="translate(126.946036, 209.315235)"><g><path d="M 37.375 0 L 28.109375 0 L 12.625 -23.453125 L 12.625 0 L 3.359375 0 L 3.359375 -38.03125 L 12.625 -38.03125 L 28.109375 -14.46875 L 28.109375 -38.03125 L 37.375 -38.03125 Z M 37.375 0 "/></g></g></g><g fill="#1a63c4" fill-opacity="1"><g transform="translate(173.092458, 209.315235)"><g><path d="M 17.609375 -38.03125 C 21.617188 -38.03125 25.117188 -37.234375 28.109375 -35.640625 C 31.109375 -34.054688 33.429688 -31.828125 35.078125 -28.953125 C 36.722656 -26.078125 37.546875 -22.765625 37.546875 -19.015625 C 37.546875 -15.296875 36.722656 -11.988281 35.078125 -9.09375 C 33.429688 -6.207031 31.097656 -3.96875 28.078125 -2.375 C 25.066406 -0.789062 21.578125 0 17.609375 0 L 3.359375 0 L 3.359375 -38.03125 Z M 17.015625 -8.015625 C 20.515625 -8.015625 23.238281 -8.972656 25.1875 -10.890625 C 27.132812 -12.804688 28.109375 -15.515625 28.109375 -19.015625 C 28.109375 -22.515625 27.132812 -25.238281 25.1875 -27.1875 C 23.238281 -29.144531 20.515625 -30.125 17.015625 -30.125 L 12.625 -30.125 L 12.625 -8.015625 Z M 17.015625 -8.015625 "/></g></g></g><g fill="#1a63c4" fill-opacity="1"><g transform="translate(217.884836, 209.315235)"><g><path d="M 12.625 -38.03125 L 12.625 0 L 3.359375 0 L 3.359375 -38.03125 Z M 12.625 -38.03125 "/></g></g></g><g fill="#1a63c4" fill-opacity="1"><g transform="translate(239.279534, 209.315235)"><g><path d="M 37.375 0 L 28.109375 0 L 12.625 -23.453125 L 12.625 0 L 3.359375 0 L 3.359375 -38.03125 L 12.625 -38.03125 L 28.109375 -14.46875 L 28.109375 -38.03125 L 37.375 -38.03125 Z M 37.375 0 "/></g></g></g><g fill="#1a63c4" fill-opacity="1"><g transform="translate(285.425949, 209.315235)"><g><path d="M 28.609375 -26 C 27.921875 -27.269531 26.9375 -28.238281 25.65625 -28.90625 C 24.375 -29.570312 22.863281 -29.90625 21.125 -29.90625 C 18.125 -29.90625 15.722656 -28.921875 13.921875 -26.953125 C 12.117188 -24.984375 11.21875 -22.351562 11.21875 -19.0625 C 11.21875 -15.5625 12.164062 -12.828125 14.0625 -10.859375 C 15.957031 -8.890625 18.566406 -7.90625 21.890625 -7.90625 C 24.160156 -7.90625 26.082031 -8.484375 27.65625 -9.640625 C 29.226562 -10.796875 30.375 -12.457031 31.09375 -14.625 L 19.34375 -14.625 L 19.34375 -21.453125 L 39.484375 -21.453125 L 39.484375 -12.84375 C 38.804688 -10.53125 37.644531 -8.378906 36 -6.390625 C 34.351562 -4.398438 32.265625 -2.789062 29.734375 -1.5625 C 27.210938 -0.34375 24.363281 0.265625 21.1875 0.265625 C 17.425781 0.265625 14.070312 -0.550781 11.125 -2.1875 C 8.1875 -3.832031 5.894531 -6.117188 4.25 -9.046875 C 2.601562 -11.972656 1.78125 -15.3125 1.78125 -19.0625 C 1.78125 -22.820312 2.601562 -26.171875 4.25 -29.109375 C 5.894531 -32.054688 8.179688 -34.351562 11.109375 -36 C 14.035156 -37.644531 17.375 -38.46875 21.125 -38.46875 C 25.675781 -38.46875 29.515625 -37.363281 32.640625 -35.15625 C 35.765625 -32.957031 37.832031 -29.90625 38.84375 -26 Z M 28.609375 -26 "/></g></g></g><g fill="#1a63c4" fill-opacity="1"><g transform="translate(148.730142, 247.013279)"><g><path d="M 0.734375 -6.9375 C 0.734375 -8.289062 1.046875 -9.503906 1.671875 -10.578125 C 2.304688 -11.648438 3.164062 -12.488281 4.25 -13.09375 C 5.332031 -13.695312 6.515625 -14 7.796875 -14 C 9.265625 -14 10.570312 -13.632812 11.71875 -12.90625 C 12.875 -12.1875 13.707031 -11.164062 14.21875 -9.84375 L 11.5 -9.84375 C 11.132812 -10.570312 10.632812 -11.113281 10 -11.46875 C 9.363281 -11.832031 8.628906 -12.015625 7.796875 -12.015625 C 6.878906 -12.015625 6.0625 -11.804688 5.34375 -11.390625 C 4.632812 -10.984375 4.078125 -10.394531 3.671875 -9.625 C 3.265625 -8.851562 3.0625 -7.957031 3.0625 -6.9375 C 3.0625 -5.914062 3.265625 -5.019531 3.671875 -4.25 C 4.078125 -3.488281 4.632812 -2.894531 5.34375 -2.46875 C 6.0625 -2.050781 6.878906 -1.84375 7.796875 -1.84375 C 8.628906 -1.84375 9.363281 -2.019531 10 -2.375 C 10.632812 -2.738281 11.132812 -3.285156 11.5 -4.015625 L 14.21875 -4.015625 C 13.707031 -2.691406 12.875 -1.671875 11.71875 -0.953125 C 10.570312 -0.234375 9.265625 0.125 7.796875 0.125 C 6.492188 0.125 5.304688 -0.175781 4.234375 -0.78125 C 3.160156 -1.382812 2.304688 -2.222656 1.671875 -3.296875 C 1.046875 -4.367188 0.734375 -5.582031 0.734375 -6.9375 Z M 0.734375 -6.9375 "/></g></g></g><g fill="#1a63c4" fill-opacity="1"><g transform="translate(168.089769, 247.013279)"><g><path d="M 8.671875 0 L 5.484375 -5.53125 L 3.765625 -5.53125 L 3.765625 0 L 1.484375 0 L 1.484375 -13.828125 L 6.265625 -13.828125 C 7.328125 -13.828125 8.222656 -13.640625 8.953125 -13.265625 C 9.691406 -12.890625 10.242188 -12.390625 10.609375 -11.765625 C 10.972656 -11.148438 11.15625 -10.457031 11.15625 -9.6875 C 11.15625 -8.78125 10.894531 -7.957031 10.375 -7.21875 C 9.851562 -6.488281 9.046875 -5.992188 7.953125 -5.734375 L 11.375 0 Z M 3.765625 -7.34375 L 6.265625 -7.34375 C 7.109375 -7.34375 7.742188 -7.550781 8.171875 -7.96875 C 8.609375 -8.394531 8.828125 -8.96875 8.828125 -9.6875 C 8.828125 -10.40625 8.613281 -10.960938 8.1875 -11.359375 C 7.769531 -11.765625 7.128906 -11.96875 6.265625 -11.96875 L 3.765625 -11.96875 Z M 3.765625 -7.34375 "/></g></g></g><g fill="#1a63c4" fill-opacity="1"><g transform="translate(184.644126, 247.013279)"><g><path d="M 3.765625 -12 L 3.765625 -7.9375 L 8.53125 -7.9375 L 8.53125 -6.09375 L 3.765625 -6.09375 L 3.765625 -1.84375 L 9.125 -1.84375 L 9.125 0 L 1.484375 0 L 1.484375 -13.84375 L 9.125 -13.84375 L 9.125 -12 Z M 3.765625 -12 "/></g></g></g><g fill="#1a63c4" fill-opacity="1"><g transform="translate(199.049764, 247.013279)"><g><path d="M 6.046875 0.140625 C 5.117188 0.140625 4.28125 -0.0195312 3.53125 -0.34375 C 2.789062 -0.664062 2.207031 -1.125 1.78125 -1.71875 C 1.363281 -2.320312 1.15625 -3.019531 1.15625 -3.8125 L 3.578125 -3.8125 C 3.628906 -3.21875 3.863281 -2.726562 4.28125 -2.34375 C 4.695312 -1.957031 5.285156 -1.765625 6.046875 -1.765625 C 6.828125 -1.765625 7.4375 -1.953125 7.875 -2.328125 C 8.3125 -2.710938 8.53125 -3.203125 8.53125 -3.796875 C 8.53125 -4.265625 8.394531 -4.644531 8.125 -4.9375 C 7.851562 -5.226562 7.515625 -5.453125 7.109375 -5.609375 C 6.703125 -5.765625 6.144531 -5.9375 5.4375 -6.125 C 4.53125 -6.363281 3.796875 -6.601562 3.234375 -6.84375 C 2.671875 -7.09375 2.1875 -7.472656 1.78125 -7.984375 C 1.382812 -8.503906 1.1875 -9.195312 1.1875 -10.0625 C 1.1875 -10.863281 1.382812 -11.5625 1.78125 -12.15625 C 2.1875 -12.75 2.742188 -13.203125 3.453125 -13.515625 C 4.171875 -13.835938 5.003906 -14 5.953125 -14 C 7.285156 -14 8.378906 -13.664062 9.234375 -13 C 10.085938 -12.332031 10.5625 -11.414062 10.65625 -10.25 L 8.15625 -10.25 C 8.113281 -10.75 7.875 -11.175781 7.4375 -11.53125 C 7 -11.894531 6.421875 -12.078125 5.703125 -12.078125 C 5.054688 -12.078125 4.523438 -11.910156 4.109375 -11.578125 C 3.703125 -11.242188 3.5 -10.765625 3.5 -10.140625 C 3.5 -9.710938 3.628906 -9.363281 3.890625 -9.09375 C 4.148438 -8.820312 4.476562 -8.609375 4.875 -8.453125 C 5.269531 -8.296875 5.8125 -8.125 6.5 -7.9375 C 7.414062 -7.6875 8.160156 -7.429688 8.734375 -7.171875 C 9.316406 -6.921875 9.8125 -6.535156 10.21875 -6.015625 C 10.625 -5.492188 10.828125 -4.796875 10.828125 -3.921875 C 10.828125 -3.210938 10.632812 -2.546875 10.25 -1.921875 C 9.875 -1.304688 9.320312 -0.804688 8.59375 -0.421875 C 7.875 -0.046875 7.023438 0.140625 6.046875 0.140625 Z M 6.046875 0.140625 "/></g></g></g><g fill="#1a63c4" fill-opacity="1"><g transform="translate(215.047047, 247.013279)"><g><path d="M 10.421875 -13.828125 L 10.421875 -11.96875 L 6.75 -11.96875 L 6.75 0 L 4.46875 0 L 4.46875 -11.96875 L 0.78125 -11.96875 L 0.78125 -13.828125 Z M 10.421875 -13.828125 "/></g></g></g></svg>